# xmcd CD database file generated by OrangeCD 6.0
#
# Track frame offsets:
#	150
#	22072
#	47795
#	74040
#	95930
#	119742
#	137505
#	152057
#
# Disc length: 2357 seconds
#
# Revision: 1
# Processed by: cddbd v1.5.1PL2 Copyright (c) Steve Scherf et al.
# Submitted via: OrangeCD 6.0
#
DISCID=7b093308
DTITLE=Various Artist - Salor de Cuba
DYEAR=1900
DGENRE=Salsa
TTITLE0=La barriada - Fantasma
TTITLE1=Pachito Alonso y sus Kini Kini - Ayudame protegeme
TTITLE2=Franck Emilio Flynn y sus Amigos - Los amigos
TTITLE3=Jose Maria Vitier - Balada y rito
TTITLE4=La barriada - Basta una mirada
TTITLE5=Pachito Alonso y sus Kini Kini - La musica nuestra musica
TTITLE6=Franck Emilio Flynn y sus Amigos - El manistero
TTITLE7=Jose Maria Vitier - Samba al sur
EXTD=
EXTT0=
EXTT1=
EXTT2=
EXTT3=
EXTT4=
EXTT5=
EXTT6=
EXTT7=
PLAYORDER=
